<svg width="38" height="34" viewBox="0 0 38 34" fill="none" xmlns="http://www.w3.org/2000/svg">
<path d="M5 7H7C8.06087 7 9.07828 6.57857 9.82843 5.82843C10.5786 5.07828 11 4.06087 11 3C11 2.46957 11.2107 1.96086 11.5858 1.58579C11.9609 1.21071 12.4696 1 13 1H25C25.5304 1 26.0391 1.21071 26.4142 1.58579C26.7893 1.96086 27 2.46957 27 3C27 4.06087 27.4214 5.07828 28.1716 5.82843C28.9217 6.57857 29.9391 7 31 7H33C34.0609 7 35.0783 7.42143 35.8284 8.17157C36.5786 8.92172 37 9.93913 37 11V29C37 30.0609 36.5786 31.0783 35.8284 31.8284C35.0783 32.5786 34.0609 33 33 33H5C3.93913 33 2.92172 32.5786 2.17157 31.8284C1.42143 31.0783 1 30.0609 1 29V11C1 9.93913 1.42143 8.92172 2.17157 8.17157C2.92172 7.42143 3.93913 7 5 7" stroke="black" stroke-width="2" stroke-linecap="round" stroke-linejoin="round"/>
</svg>
